# plane : 2u*2u, 8x8segs
# 81 verts, 128 faces
o Plane
v -1 1 0
v -0.75 1 0
v -0.5 1 0
v -0.25 1 0
v 0 1 0
v 0.25 1 0
v 0.5 1 0
v 0.75 1 0
v 1 1 0
v -1 0.75 0
v -0.75 0.75 0
v -0.5 0.75 0
v -0.25 0.75 0
v 0 0.75 0
v 0.25 0.75 0
v 0.5 0.75 0
v 0.75 0.75 0
v 1 0.75 0
v -1 0.5 0
v -0.75 0.5 0
v -0.5 0.5 0
v -0.25 0.5 0
v 0 0.5 0
v 0.25 0.5 0
v 0.5 0.5 0
v 0.75 0.5 0
v 1 0.5 0
v -1 0.25 0
v -0.75 0.25 0
v -0.5 0.25 0
v -0.25 0.25 0
v 0 0.25 0
v 0.25 0.25 0
v 0.5 0.25 0
v 0.75 0.25 0
v 1 0.25 0
v -1 0 0
v -0.75 0 0
v -0.5 0 0
v -0.25 0 0
v 0 0 0
v 0.25 0 0
v 0.5 0 0
v 0.75 0 0
v 1 0 0
v -1 -0.25 0
v -0.75 -0.25 0
v -0.5 -0.25 0
v -0.25 -0.25 0
v 0 -0.25 0
v 0.25 -0.25 0
v 0.5 -0.25 0
v 0.75 -0.25 0
v 1 -0.25 0
v -1 -0.5 0
v -0.75 -0.5 0
v -0.5 -0.5 0
v -0.25 -0.5 0
v 0 -0.5 0
v 0.25 -0.5 0
v 0.5 -0.5 0
v 0.75 -0.5 0
v 1 -0.5 0
v -1 -0.75 0
v -0.75 -0.75 0
v -0.5 -0.75 0
v -0.25 -0.75 0
v 0 -0.75 0
v 0.25 -0.75 0
v 0.5 -0.75 0
v 0.75 -0.75 0
v 1 -0.75 0
v -1 -1 0
v -0.75 -1 0
v -0.5 -1 0
v -0.25 -1 0
v 0 -1 0
v 0.25 -1 0
v 0.5 -1 0
v 0.75 -1 0
v 1 -1 0
vt 0 1
vt 0 0.875
vt 0.125 1
vt 0 0.875
vt 0.125 0.875
vt 0.125 1
vt 0.125 1
vt 0.125 0.875
vt 0.25 1
vt 0.125 0.875
vt 0.25 0.875
vt 0.25 1
vt 0.25 1
vt 0.25 0.875
vt 0.375 1
vt 0.25 0.875
vt 0.375 0.875
vt 0.375 1
vt 0.375 1
vt 0.375 0.875
vt 0.5 1
vt 0.375 0.875
vt 0.5 0.875
vt 0.5 1
vt 0.5 1
vt 0.5 0.875
vt 0.625 1
vt 0.5 0.875
vt 0.625 0.875
vt 0.625 1
vt 0.625 1
vt 0.625 0.875
vt 0.75 1
vt 0.625 0.875
vt 0.75 0.875
vt 0.75 1
vt 0.75 1
vt 0.75 0.875
vt 0.875 1
vt 0.75 0.875
vt 0.875 0.875
vt 0.875 1
vt 0.875 1
vt 0.875 0.875
vt 1 1
vt 0.875 0.875
vt 1 0.875
vt 1 1
vt 0 0.875
vt 0 0.75
vt 0.125 0.875
vt 0 0.75
vt 0.125 0.75
vt 0.125 0.875
vt 0.125 0.875
vt 0.125 0.75
vt 0.25 0.875
vt 0.125 0.75
vt 0.25 0.75
vt 0.25 0.875
vt 0.25 0.875
vt 0.25 0.75
vt 0.375 0.875
vt 0.25 0.75
vt 0.375 0.75
vt 0.375 0.875
vt 0.375 0.875
vt 0.375 0.75
vt 0.5 0.875
vt 0.375 0.75
vt 0.5 0.75
vt 0.5 0.875
vt 0.5 0.875
vt 0.5 0.75
vt 0.625 0.875
vt 0.5 0.75
vt 0.625 0.75
vt 0.625 0.875
vt 0.625 0.875
vt 0.625 0.75
vt 0.75 0.875
vt 0.625 0.75
vt 0.75 0.75
vt 0.75 0.875
vt 0.75 0.875
vt 0.75 0.75
vt 0.875 0.875
vt 0.75 0.75
vt 0.875 0.75
vt 0.875 0.875
vt 0.875 0.875
vt 0.875 0.75
vt 1 0.875
vt 0.875 0.75
vt 1 0.75
vt 1 0.875
vt 0 0.75
vt 0 0.625
vt 0.125 0.75
vt 0 0.625
vt 0.125 0.625
vt 0.125 0.75
vt 0.125 0.75
vt 0.125 0.625
vt 0.25 0.75
vt 0.125 0.625
vt 0.25 0.625
vt 0.25 0.75
vt 0.25 0.75
vt 0.25 0.625
vt 0.375 0.75
vt 0.25 0.625
vt 0.375 0.625
vt 0.375 0.75
vt 0.375 0.75
vt 0.375 0.625
vt 0.5 0.75
vt 0.375 0.625
vt 0.5 0.625
vt 0.5 0.75
vt 0.5 0.75
vt 0.5 0.625
vt 0.625 0.75
vt 0.5 0.625
vt 0.625 0.625
vt 0.625 0.75
vt 0.625 0.75
vt 0.625 0.625
vt 0.75 0.75
vt 0.625 0.625
vt 0.75 0.625
vt 0.75 0.75
vt 0.75 0.75
vt 0.75 0.625
vt 0.875 0.75
vt 0.75 0.625
vt 0.875 0.625
vt 0.875 0.75
vt 0.875 0.75
vt 0.875 0.625
vt 1 0.75
vt 0.875 0.625
vt 1 0.625
vt 1 0.75
vt 0 0.625
vt 0 0.5
vt 0.125 0.625
vt 0 0.5
vt 0.125 0.5
vt 0.125 0.625
vt 0.125 0.625
vt 0.125 0.5
vt 0.25 0.625
vt 0.125 0.5
vt 0.25 0.5
vt 0.25 0.625
vt 0.25 0.625
vt 0.25 0.5
vt 0.375 0.625
vt 0.25 0.5
vt 0.375 0.5
vt 0.375 0.625
vt 0.375 0.625
vt 0.375 0.5
vt 0.5 0.625
vt 0.375 0.5
vt 0.5 0.5
vt 0.5 0.625
vt 0.5 0.625
vt 0.5 0.5
vt 0.625 0.625
vt 0.5 0.5
vt 0.625 0.5
vt 0.625 0.625
vt 0.625 0.625
vt 0.625 0.5
vt 0.75 0.625
vt 0.625 0.5
vt 0.75 0.5
vt 0.75 0.625
vt 0.75 0.625
vt 0.75 0.5
vt 0.875 0.625
vt 0.75 0.5
vt 0.875 0.5
vt 0.875 0.625
vt 0.875 0.625
vt 0.875 0.5
vt 1 0.625
vt 0.875 0.5
vt 1 0.5
vt 1 0.625
vt 0 0.5
vt 0 0.375
vt 0.125 0.5
vt 0 0.375
vt 0.125 0.375
vt 0.125 0.5
vt 0.125 0.5
vt 0.125 0.375
vt 0.25 0.5
vt 0.125 0.375
vt 0.25 0.375
vt 0.25 0.5
vt 0.25 0.5
vt 0.25 0.375
vt 0.375 0.5
vt 0.25 0.375
vt 0.375 0.375
vt 0.375 0.5
vt 0.375 0.5
vt 0.375 0.375
vt 0.5 0.5
vt 0.375 0.375
vt 0.5 0.375
vt 0.5 0.5
vt 0.5 0.5
vt 0.5 0.375
vt 0.625 0.5
vt 0.5 0.375
vt 0.625 0.375
vt 0.625 0.5
vt 0.625 0.5
vt 0.625 0.375
vt 0.75 0.5
vt 0.625 0.375
vt 0.75 0.375
vt 0.75 0.5
vt 0.75 0.5
vt 0.75 0.375
vt 0.875 0.5
vt 0.75 0.375
vt 0.875 0.375
vt 0.875 0.5
vt 0.875 0.5
vt 0.875 0.375
vt 1 0.5
vt 0.875 0.375
vt 1 0.375
vt 1 0.5
vt 0 0.375
vt 0 0.25
vt 0.125 0.375
vt 0 0.25
vt 0.125 0.25
vt 0.125 0.375
vt 0.125 0.375
vt 0.125 0.25
vt 0.25 0.375
vt 0.125 0.25
vt 0.25 0.25
vt 0.25 0.375
vt 0.25 0.375
vt 0.25 0.25
vt 0.375 0.375
vt 0.25 0.25
vt 0.375 0.25
vt 0.375 0.375
vt 0.375 0.375
vt 0.375 0.25
vt 0.5 0.375
vt 0.375 0.25
vt 0.5 0.25
vt 0.5 0.375
vt 0.5 0.375
vt 0.5 0.25
vt 0.625 0.375
vt 0.5 0.25
vt 0.625 0.25
vt 0.625 0.375
vt 0.625 0.375
vt 0.625 0.25
vt 0.75 0.375
vt 0.625 0.25
vt 0.75 0.25
vt 0.75 0.375
vt 0.75 0.375
vt 0.75 0.25
vt 0.875 0.375
vt 0.75 0.25
vt 0.875 0.25
vt 0.875 0.375
vt 0.875 0.375
vt 0.875 0.25
vt 1 0.375
vt 0.875 0.25
vt 1 0.25
vt 1 0.375
vt 0 0.25
vt 0 0.125
vt 0.125 0.25
vt 0 0.125
vt 0.125 0.125
vt 0.125 0.25
vt 0.125 0.25
vt 0.125 0.125
vt 0.25 0.25
vt 0.125 0.125
vt 0.25 0.125
vt 0.25 0.25
vt 0.25 0.25
vt 0.25 0.125
vt 0.375 0.25
vt 0.25 0.125
vt 0.375 0.125
vt 0.375 0.25
vt 0.375 0.25
vt 0.375 0.125
vt 0.5 0.25
vt 0.375 0.125
vt 0.5 0.125
vt 0.5 0.25
vt 0.5 0.25
vt 0.5 0.125
vt 0.625 0.25
vt 0.5 0.125
vt 0.625 0.125
vt 0.625 0.25
vt 0.625 0.25
vt 0.625 0.125
vt 0.75 0.25
vt 0.625 0.125
vt 0.75 0.125
vt 0.75 0.25
vt 0.75 0.25
vt 0.75 0.125
vt 0.875 0.25
vt 0.75 0.125
vt 0.875 0.125
vt 0.875 0.25
vt 0.875 0.25
vt 0.875 0.125
vt 1 0.25
vt 0.875 0.125
vt 1 0.125
vt 1 0.25
vt 0 0.125
vt 0 0
vt 0.125 0.125
vt 0 0
vt 0.125 0
vt 0.125 0.125
vt 0.125 0.125
vt 0.125 0
vt 0.25 0.125
vt 0.125 0
vt 0.25 0
vt 0.25 0.125
vt 0.25 0.125
vt 0.25 0
vt 0.375 0.125
vt 0.25 0
vt 0.375 0
vt 0.375 0.125
vt 0.375 0.125
vt 0.375 0
vt 0.5 0.125
vt 0.375 0
vt 0.5 0
vt 0.5 0.125
vt 0.5 0.125
vt 0.5 0
vt 0.625 0.125
vt 0.5 0
vt 0.625 0
vt 0.625 0.125
vt 0.625 0.125
vt 0.625 0
vt 0.75 0.125
vt 0.625 0
vt 0.75 0
vt 0.75 0.125
vt 0.75 0.125
vt 0.75 0
vt 0.875 0.125
vt 0.75 0
vt 0.875 0
vt 0.875 0.125
vt 0.875 0.125
vt 0.875 0
vt 1 0.125
vt 0.875 0
vt 1 0
vt 1 0.125
vn 0 0 1
vn 0 0 1
vn 0 0 1
vn 0 0 1
vn 0 0 1
vn 0 0 1
vn 0 0 1
vn 0 0 1
vn 0 0 1
vn 0 0 1
vn 0 0 1
vn 0 0 1
vn 0 0 1
vn 0 0 1
vn 0 0 1
vn 0 0 1
vn 0 0 1
vn 0 0 1
vn 0 0 1
vn 0 0 1
vn 0 0 1
vn 0 0 1
vn 0 0 1
vn 0 0 1
vn 0 0 1
vn 0 0 1
vn 0 0 1
vn 0 0 1
vn 0 0 1
vn 0 0 1
vn 0 0 1
vn 0 0 1
vn 0 0 1
vn 0 0 1
vn 0 0 1
vn 0 0 1
vn 0 0 1
vn 0 0 1
vn 0 0 1
vn 0 0 1
vn 0 0 1
vn 0 0 1
vn 0 0 1
vn 0 0 1
vn 0 0 1
vn 0 0 1
vn 0 0 1
vn 0 0 1
vn 0 0 1
vn 0 0 1
vn 0 0 1
vn 0 0 1
vn 0 0 1
vn 0 0 1
vn 0 0 1
vn 0 0 1
vn 0 0 1
vn 0 0 1
vn 0 0 1
vn 0 0 1
vn 0 0 1
vn 0 0 1
vn 0 0 1
vn 0 0 1
vn 0 0 1
vn 0 0 1
vn 0 0 1
vn 0 0 1
vn 0 0 1
vn 0 0 1
vn 0 0 1
vn 0 0 1
vn 0 0 1
vn 0 0 1
vn 0 0 1
vn 0 0 1
vn 0 0 1
vn 0 0 1
vn 0 0 1
vn 0 0 1
vn 0 0 1
vn 0 0 1
vn 0 0 1
vn 0 0 1
vn 0 0 1
vn 0 0 1
vn 0 0 1
vn 0 0 1
vn 0 0 1
vn 0 0 1
vn 0 0 1
vn 0 0 1
vn 0 0 1
vn 0 0 1
vn 0 0 1
vn 0 0 1
vn 0 0 1
vn 0 0 1
vn 0 0 1
vn 0 0 1
vn 0 0 1
vn 0 0 1
vn 0 0 1
vn 0 0 1
vn 0 0 1
vn 0 0 1
vn 0 0 1
vn 0 0 1
vn 0 0 1
vn 0 0 1
vn 0 0 1
vn 0 0 1
vn 0 0 1
vn 0 0 1
vn 0 0 1
vn 0 0 1
vn 0 0 1
vn 0 0 1
vn 0 0 1
vn 0 0 1
vn 0 0 1
vn 0 0 1
vn 0 0 1
vn 0 0 1
vn 0 0 1
vn 0 0 1
vn 0 0 1
vn 0 0 1
vn 0 0 1
vn 0 0 1
vn 0 0 1
vn 0 0 1
vn 0 0 1
vn 0 0 1
vn 0 0 1
vn 0 0 1
vn 0 0 1
vn 0 0 1
vn 0 0 1
vn 0 0 1
vn 0 0 1
vn 0 0 1
vn 0 0 1
vn 0 0 1
vn 0 0 1
vn 0 0 1
vn 0 0 1
vn 0 0 1
vn 0 0 1
vn 0 0 1
vn 0 0 1
vn 0 0 1
vn 0 0 1
vn 0 0 1
vn 0 0 1
vn 0 0 1
vn 0 0 1
vn 0 0 1
vn 0 0 1
vn 0 0 1
vn 0 0 1
vn 0 0 1
vn 0 0 1
vn 0 0 1
vn 0 0 1
vn 0 0 1
vn 0 0 1
vn 0 0 1
vn 0 0 1
vn 0 0 1
vn 0 0 1
vn 0 0 1
vn 0 0 1
vn 0 0 1
vn 0 0 1
vn 0 0 1
vn 0 0 1
vn 0 0 1
vn 0 0 1
vn 0 0 1
vn 0 0 1
vn 0 0 1
vn 0 0 1
vn 0 0 1
vn 0 0 1
vn 0 0 1
vn 0 0 1
vn 0 0 1
vn 0 0 1
vn 0 0 1
vn 0 0 1
vn 0 0 1
vn 0 0 1
vn 0 0 1
vn 0 0 1
vn 0 0 1
vn 0 0 1
vn 0 0 1
vn 0 0 1
vn 0 0 1
vn 0 0 1
vn 0 0 1
vn 0 0 1
vn 0 0 1
vn 0 0 1
vn 0 0 1
vn 0 0 1
vn 0 0 1
vn 0 0 1
vn 0 0 1
vn 0 0 1
vn 0 0 1
vn 0 0 1
vn 0 0 1
vn 0 0 1
vn 0 0 1
vn 0 0 1
vn 0 0 1
vn 0 0 1
vn 0 0 1
vn 0 0 1
vn 0 0 1
vn 0 0 1
vn 0 0 1
vn 0 0 1
vn 0 0 1
vn 0 0 1
vn 0 0 1
vn 0 0 1
vn 0 0 1
vn 0 0 1
vn 0 0 1
vn 0 0 1
vn 0 0 1
vn 0 0 1
vn 0 0 1
vn 0 0 1
vn 0 0 1
vn 0 0 1
vn 0 0 1
vn 0 0 1
vn 0 0 1
vn 0 0 1
vn 0 0 1
vn 0 0 1
vn 0 0 1
vn 0 0 1
vn 0 0 1
vn 0 0 1
vn 0 0 1
vn 0 0 1
vn 0 0 1
vn 0 0 1
vn 0 0 1
vn 0 0 1
vn 0 0 1
vn 0 0 1
vn 0 0 1
vn 0 0 1
vn 0 0 1
vn 0 0 1
vn 0 0 1
vn 0 0 1
vn 0 0 1
vn 0 0 1
vn 0 0 1
vn 0 0 1
vn 0 0 1
vn 0 0 1
vn 0 0 1
vn 0 0 1
vn 0 0 1
vn 0 0 1
vn 0 0 1
vn 0 0 1
vn 0 0 1
vn 0 0 1
vn 0 0 1
vn 0 0 1
vn 0 0 1
vn 0 0 1
vn 0 0 1
vn 0 0 1
vn 0 0 1
vn 0 0 1
vn 0 0 1
vn 0 0 1
vn 0 0 1
vn 0 0 1
vn 0 0 1
vn 0 0 1
vn 0 0 1
vn 0 0 1
vn 0 0 1
vn 0 0 1
vn 0 0 1
vn 0 0 1
vn 0 0 1
vn 0 0 1
vn 0 0 1
vn 0 0 1
vn 0 0 1
vn 0 0 1
vn 0 0 1
vn 0 0 1
vn 0 0 1
vn 0 0 1
vn 0 0 1
vn 0 0 1
vn 0 0 1
vn 0 0 1
vn 0 0 1
vn 0 0 1
vn 0 0 1
vn 0 0 1
vn 0 0 1
vn 0 0 1
vn 0 0 1
vn 0 0 1
vn 0 0 1
vn 0 0 1
vn 0 0 1
vn 0 0 1
vn 0 0 1
vn 0 0 1
vn 0 0 1
vn 0 0 1
vn 0 0 1
vn 0 0 1
vn 0 0 1
vn 0 0 1
vn 0 0 1
vn 0 0 1
vn 0 0 1
vn 0 0 1
vn 0 0 1
vn 0 0 1
vn 0 0 1
vn 0 0 1
vn 0 0 1
vn 0 0 1
vn 0 0 1
vn 0 0 1
vn 0 0 1
vn 0 0 1
vn 0 0 1
vn 0 0 1
vn 0 0 1
vn 0 0 1
vn 0 0 1
vn 0 0 1
vn 0 0 1
vn 0 0 1
vn 0 0 1
vn 0 0 1
vn 0 0 1
vn 0 0 1
vn 0 0 1
vn 0 0 1
vn 0 0 1
vn 0 0 1
vn 0 0 1
vn 0 0 1
vn 0 0 1
vn 0 0 1
vn 0 0 1
vn 0 0 1
vn 0 0 1
vn 0 0 1
vn 0 0 1
vn 0 0 1
vn 0 0 1
vn 0 0 1
vn 0 0 1
vn 0 0 1
vn 0 0 1
vn 0 0 1
vn 0 0 1
vn 0 0 1
vn 0 0 1
vn 0 0 1
vn 0 0 1
vn 0 0 1
vn 0 0 1
f 1/1/1 10/2/2 2/3/3
f 10/4/4 11/5/5 2/6/6
f 2/7/7 11/8/8 3/9/9
f 11/10/10 12/11/11 3/12/12
f 3/13/13 12/14/14 4/15/15
f 12/16/16 13/17/17 4/18/18
f 4/19/19 13/20/20 5/21/21
f 13/22/22 14/23/23 5/24/24
f 5/25/25 14/26/26 6/27/27
f 14/28/28 15/29/29 6/30/30
f 6/31/31 15/32/32 7/33/33
f 15/34/34 16/35/35 7/36/36
f 7/37/37 16/38/38 8/39/39
f 16/40/40 17/41/41 8/42/42
f 8/43/43 17/44/44 9/45/45
f 17/46/46 18/47/47 9/48/48
f 10/49/49 19/50/50 11/51/51
f 19/52/52 20/53/53 11/54/54
f 11/55/55 20/56/56 12/57/57
f 20/58/58 21/59/59 12/60/60
f 12/61/61 21/62/62 13/63/63
f 21/64/64 22/65/65 13/66/66
f 13/67/67 22/68/68 14/69/69
f 22/70/70 23/71/71 14/72/72
f 14/73/73 23/74/74 15/75/75
f 23/76/76 24/77/77 15/78/78
f 15/79/79 24/80/80 16/81/81
f 24/82/82 25/83/83 16/84/84
f 16/85/85 25/86/86 17/87/87
f 25/88/88 26/89/89 17/90/90
f 17/91/91 26/92/92 18/93/93
f 26/94/94 27/95/95 18/96/96
f 19/97/97 28/98/98 20/99/99
f 28/100/100 29/101/101 20/102/102
f 20/103/103 29/104/104 21/105/105
f 29/106/106 30/107/107 21/108/108
f 21/109/109 30/110/110 22/111/111
f 30/112/112 31/113/113 22/114/114
f 22/115/115 31/116/116 23/117/117
f 31/118/118 32/119/119 23/120/120
f 23/121/121 32/122/122 24/123/123
f 32/124/124 33/125/125 24/126/126
f 24/127/127 33/128/128 25/129/129
f 33/130/130 34/131/131 25/132/132
f 25/133/133 34/134/134 26/135/135
f 34/136/136 35/137/137 26/138/138
f 26/139/139 35/140/140 27/141/141
f 35/142/142 36/143/143 27/144/144
f 28/145/145 37/146/146 29/147/147
f 37/148/148 38/149/149 29/150/150
f 29/151/151 38/152/152 30/153/153
f 38/154/154 39/155/155 30/156/156
f 30/157/157 39/158/158 31/159/159
f 39/160/160 40/161/161 31/162/162
f 31/163/163 40/164/164 32/165/165
f 40/166/166 41/167/167 32/168/168
f 32/169/169 41/170/170 33/171/171
f 41/172/172 42/173/173 33/174/174
f 33/175/175 42/176/176 34/177/177
f 42/178/178 43/179/179 34/180/180
f 34/181/181 43/182/182 35/183/183
f 43/184/184 44/185/185 35/186/186
f 35/187/187 44/188/188 36/189/189
f 44/190/190 45/191/191 36/192/192
f 37/193/193 46/194/194 38/195/195
f 46/196/196 47/197/197 38/198/198
f 38/199/199 47/200/200 39/201/201
f 47/202/202 48/203/203 39/204/204
f 39/205/205 48/206/206 40/207/207
f 48/208/208 49/209/209 40/210/210
f 40/211/211 49/212/212 41/213/213
f 49/214/214 50/215/215 41/216/216
f 41/217/217 50/218/218 42/219/219
f 50/220/220 51/221/221 42/222/222
f 42/223/223 51/224/224 43/225/225
f 51/226/226 52/227/227 43/228/228
f 43/229/229 52/230/230 44/231/231
f 52/232/232 53/233/233 44/234/234
f 44/235/235 53/236/236 45/237/237
f 53/238/238 54/239/239 45/240/240
f 46/241/241 55/242/242 47/243/243
f 55/244/244 56/245/245 47/246/246
f 47/247/247 56/248/248 48/249/249
f 56/250/250 57/251/251 48/252/252
f 48/253/253 57/254/254 49/255/255
f 57/256/256 58/257/257 49/258/258
f 49/259/259 58/260/260 50/261/261
f 58/262/262 59/263/263 50/264/264
f 50/265/265 59/266/266 51/267/267
f 59/268/268 60/269/269 51/270/270
f 51/271/271 60/272/272 52/273/273
f 60/274/274 61/275/275 52/276/276
f 52/277/277 61/278/278 53/279/279
f 61/280/280 62/281/281 53/282/282
f 53/283/283 62/284/284 54/285/285
f 62/286/286 63/287/287 54/288/288
f 55/289/289 64/290/290 56/291/291
f 64/292/292 65/293/293 56/294/294
f 56/295/295 65/296/296 57/297/297
f 65/298/298 66/299/299 57/300/300
f 57/301/301 66/302/302 58/303/303
f 66/304/304 67/305/305 58/306/306
f 58/307/307 67/308/308 59/309/309
f 67/310/310 68/311/311 59/312/312
f 59/313/313 68/314/314 60/315/315
f 68/316/316 69/317/317 60/318/318
f 60/319/319 69/320/320 61/321/321
f 69/322/322 70/323/323 61/324/324
f 61/325/325 70/326/326 62/327/327
f 70/328/328 71/329/329 62/330/330
f 62/331/331 71/332/332 63/333/333
f 71/334/334 72/335/335 63/336/336
f 64/337/337 73/338/338 65/339/339
f 73/340/340 74/341/341 65/342/342
f 65/343/343 74/344/344 66/345/345
f 74/346/346 75/347/347 66/348/348
f 66/349/349 75/350/350 67/351/351
f 75/352/352 76/353/353 67/354/354
f 67/355/355 76/356/356 68/357/357
f 76/358/358 77/359/359 68/360/360
f 68/361/361 77/362/362 69/363/363
f 77/364/364 78/365/365 69/366/366
f 69/367/367 78/368/368 70/369/369
f 78/370/370 79/371/371 70/372/372
f 70/373/373 79/374/374 71/375/375
f 79/376/376 80/377/377 71/378/378
f 71/379/379 80/380/380 72/381/381
f 80/382/382 81/383/383 72/384/384
